<?xml version="1.0" encoding="utf-8"?>
<!-- Generator: Adobe Illustrator 21.1.0, SVG Export Plug-In . SVG Version: 6.00 Build 0)  -->
<svg version="1.1" id="Layer_1" xmlns="http://www.w3.org/2000/svg" xmlns:xlink="http://www.w3.org/1999/xlink" x="0px" y="0px"
	 width="720px" height="150px" viewBox="0 0 720 150" style="enable-background:new 0 0 720 150;" xml:space="preserve">
<style type="text/css">
	.st0{display:none;}
	.st1{display:inline;fill-rule:evenodd;clip-rule:evenodd;fill:#FFAB00;}
	.st2{display:inline;}
	.st3{display:inline;fill-rule:evenodd;clip-rule:evenodd;}
	.st4{fill:#FFAB00;}
	.st5{display:inline;fill-rule:evenodd;clip-rule:evenodd;fill:#FF7800;}
	.st6{fill-rule:evenodd;clip-rule:evenodd;fill:#FFAB00;}
	.st7{display:inline;fill-rule:evenodd;clip-rule:evenodd;fill:#FFB800;}
	.st8{display:inline;fill-rule:evenodd;clip-rule:evenodd;fill:url(#SVGID_1_);}
	.st9{display:inline;fill-rule:evenodd;clip-rule:evenodd;fill:url(#SVGID_2_);}
	.st10{fill:#FFB800;}
	.st11{display:inline;fill-rule:evenodd;clip-rule:evenodd;fill:#FFFFFF;}
	.st12{display:inline;fill-rule:evenodd;clip-rule:evenodd;fill:url(#SVGID_3_);}
	.st13{fill:#FFFFFF;}
	.st14{fill:url(#SVGID_4_);}
	.st15{display:inline;fill-rule:evenodd;clip-rule:evenodd;fill:url(#SVGID_5_);}
	.st16{display:inline;fill-rule:evenodd;clip-rule:evenodd;fill:url(#SVGID_6_);}
	.st17{fill:url(#SVGID_7_);}
	.st18{display:inline;fill-rule:evenodd;clip-rule:evenodd;fill:url(#SVGID_8_);}
	.st19{fill:url(#SVGID_9_);}
	.st20{fill:url(#SVGID_10_);}
	.st21{fill:url(#SVGID_11_);}
	.st22{fill:url(#SVGID_12_);}
	.st23{fill:url(#SVGID_13_);}
	.st24{display:inline;fill-rule:evenodd;clip-rule:evenodd;fill:url(#SVGID_14_);}
	.st25{fill-rule:evenodd;clip-rule:evenodd;}
	.st26{fill-rule:evenodd;clip-rule:evenodd;fill:#FF7800;}
	.st27{fill-rule:evenodd;clip-rule:evenodd;fill:#333333;}
	.st28{fill:#333333;}
	.st29{fill-rule:evenodd;clip-rule:evenodd;fill:#666666;}
	.st30{fill-rule:evenodd;clip-rule:evenodd;fill:#FFFFFF;}
	.st31{fill-rule:evenodd;clip-rule:evenodd;fill:#CCCCCC;}
	.st32{fill-rule:evenodd;clip-rule:evenodd;fill:#FFB800;}
	.st33{fill-rule:evenodd;clip-rule:evenodd;fill:url(#SVGID_15_);}
	.st34{fill-rule:evenodd;clip-rule:evenodd;fill:url(#SVGID_16_);}
	.st35{fill-rule:evenodd;clip-rule:evenodd;fill:url(#SVGID_17_);}
	.st36{fill:url(#SVGID_18_);}
	.st37{fill-rule:evenodd;clip-rule:evenodd;fill:url(#SVGID_19_);}
	.st38{fill-rule:evenodd;clip-rule:evenodd;fill:url(#SVGID_20_);}
	.st39{fill:url(#SVGID_21_);}
	.st40{fill-rule:evenodd;clip-rule:evenodd;fill:url(#SVGID_22_);}
	.st41{fill:url(#SVGID_23_);}
	.st42{fill:url(#SVGID_24_);}
	.st43{fill:url(#SVGID_25_);}
	.st44{fill:url(#SVGID_26_);}
	.st45{fill:url(#SVGID_27_);}
	.st46{fill-rule:evenodd;clip-rule:evenodd;fill:url(#SVGID_28_);}
	.st47{fill-rule:evenodd;clip-rule:evenodd;fill:#535353;}
	.st48{fill:#535353;}
	.st49{fill-rule:evenodd;clip-rule:evenodd;fill:#E59D72;}
</style>
<g>
	<path class="st6" d="M679.5,79.4c1.4,1.4,3.1,2.1,5.1,2.1h20.2c2.4,0,4.4-0.2,6.1-0.6c1.7-0.4,2.8-0.9,3.5-1.6
		c0.5-0.5,0.9-0.4,1.4,0.3c0.5,0.7,0.8,2.3,0.8,4.9v0.8c0,2.1-0.7,3.8-2.1,5.2c-1.4,1.4-3.2,2.1-5.2,2.1h-35.8c-2,0-3.7-0.7-5.2-2.2
		c-1.5-1.5-2.2-3.2-2.2-5.2V37c0-2.1,0.7-3.8,2.1-5.2c1.4-1.4,3.2-2.1,5.2-2.1h35.8c2,0,3.7,0.7,5.2,2.2c1.5,1.5,2.2,3.2,2.2,5.2
		v0.8c0,2.7-0.3,4.4-1,5.2c-0.3,0.5-0.7,0.5-1.2,0c-0.6-0.7-1.8-1.2-3.6-1.6c-1.8-0.4-3.8-0.6-5.9-0.6h-20.2c-2.1,0-3.8,0.7-5.2,2.2
		c-1.4,1.5-2.1,3.2-2.1,5.2v26C677.4,76.3,678.1,78,679.5,79.4z"/>
	<path class="st6" d="M654.5,92.8h-35.8c-2,0-3.7-0.7-5.2-2.2c-1.5-1.5-2.2-3.2-2.2-5.2V37c0-2.1,0.7-3.8,2.1-5.2
		c1.4-1.4,3.2-2.1,5.2-2.1h35.8c2,0,3.7,0.7,5.2,2.2c1.5,1.5,2.2,3.2,2.2,5.2v0.8c0,2.7-0.3,4.4-1,5.2c-0.3,0.5-0.7,0.5-1.2,0
		c-0.6-0.7-1.8-1.2-3.6-1.6c-1.8-0.4-3.8-0.6-5.9-0.6H630c-2.1,0-3.8,0.7-5.2,2.2c-1.4,1.5-2.1,3.2-2.1,5.2v26
		c0,2.1,0.7,3.8,2.1,5.2s3.1,2.1,5.1,2.1h20.2c2.4,0,4.4-0.2,6.1-0.6c1.7-0.4,2.8-0.9,3.5-1.6c0.5-0.5,0.9-0.4,1.4,0.3
		c0.5,0.7,0.7,2.3,0.7,4.9v0.8c0,2.1-0.7,3.8-2.1,5.2C658.4,92,656.6,92.8,654.5,92.8z"/>
	<g>
		<path d="M619.1,107.3c0-1.7-0.8-4.2-3.7-4.2c-2.6,0-4.2,2.1-4.2,4.9c0,2.7,1.7,4.6,4.4,4.6c1.4,0,2.4-0.3,3-0.6l-0.3-1.2
			c-0.6,0.3-1.3,0.5-2.5,0.5c-1.6,0-3-0.9-3.1-3.1h6.3C619.1,107.9,619.1,107.7,619.1,107.3z M612.7,106.9c0.1-1.1,0.9-2.7,2.5-2.7
			c1.8,0,2.3,1.6,2.3,2.7H612.7z"/>
	</g>
	<path class="st25" d="M602.9,109.4c0,1.1,0.3,1.7,1.2,1.7c0.4,0,0.7,0,0.9-0.1l0.1,1.2c-0.3,0.1-0.8,0.2-1.5,0.2
		c-0.8,0-1.4-0.3-1.8-0.7c-0.5-0.5-0.6-1.3-0.6-2.3v-4.9h-1.4v-1.2h1.4v-1.7l1.6-0.5v2.2h2.3v1.2h-2.3V109.4z"/>
	<path class="st6" d="M598.8,92.8c-1.5,0-2.8-0.5-3.9-1.6c-1.1-1.1-1.6-2.4-1.6-3.9c0-1.6,0.5-3,1.6-4c1.1-1.1,2.4-1.6,3.9-1.6
		c1.6,0,3,0.5,4,1.6c1.1,1.1,1.6,2.4,1.6,4c0,1.6-0.6,2.9-1.7,4C601.7,92.2,600.4,92.8,598.8,92.8z"/>
	<path class="st25" d="M593.3,104.8c-0.4-0.2-1-0.5-1.8-0.5c-1,0-1.5,0.6-1.5,1.2c0,0.7,0.5,1.1,1.7,1.5c1.6,0.6,2.4,1.4,2.4,2.7
		c0,1.6-1.2,2.7-3.4,2.7c-1,0-1.9-0.3-2.5-0.6l0.4-1.2c0.5,0.3,1.3,0.7,2.2,0.7c1.2,0,1.7-0.6,1.7-1.3c0-0.8-0.5-1.2-1.7-1.7
		c-1.6-0.6-2.4-1.5-2.4-2.5c0-1.5,1.2-2.6,3.1-2.6c0.9,0,1.7,0.3,2.2,0.6L593.3,104.8z"/>
	<path class="st25" d="M580.8,92.8h-39.4c-2,0-3.7-0.7-5.2-2.2c-1.5-1.5-2.2-3.2-2.2-5.2v-0.8c0-2.6,0.3-4.3,1-5.2
		c0.3-0.5,0.7-0.5,1.2,0c0.6,0.7,1.8,1.2,3.6,1.6c1.8,0.4,3.8,0.6,5.9,0.6h23.8c2,0,3.7-0.7,5.2-2.2c1.5-1.5,2.2-3.2,2.2-5.3
		c0-2.1-0.7-3.8-2.2-5.2c-1.5-1.4-3.2-2.1-5.2-2.1h-28.2c-2,0-3.7-0.7-5.2-2.2c-1.5-1.5-2.2-3.2-2.2-5.2V37c0-2.1,0.7-3.8,2.1-5.2
		c1.4-1.4,3.2-2.1,5.2-2.1h39.4c2,0,3.7,0.7,5.2,2.2c1.5,1.5,2.2,3.2,2.2,5.2v0.8c0,2.7-0.3,4.4-1,5.2c-0.3,0.5-0.7,0.5-1.2,0
		c-0.6-0.7-1.8-1.2-3.6-1.6c-1.8-0.4-3.8-0.6-5.9-0.6h-23.8c-2.1,0-3.8,0.7-5.2,2.2c-1.4,1.5-2.1,3.2-2.1,5.3c0,2.1,0.7,3.8,2.1,5.2
		c1.4,1.4,3.1,2.1,5.2,2.1h28.2c2,0,3.7,0.7,5.2,2.2c1.5,1.5,2.2,3.2,2.2,5.2v22.5c0,2.1-0.7,3.8-2.1,5.2
		C584.6,92,582.9,92.8,580.8,92.8z"/>
	<g>
		<path d="M491.5,66.8h26.4c2,0,3.7-0.7,5.2-2.2c1.5-1.5,2.2-3.2,2.2-5.2V37c0-2.1-0.7-3.8-2.1-5.2c-1.4-1.4-3.2-2.1-5.2-2.1h-37.6
			c-2,0-3.7,0.7-5.2,2.2c-1.5,1.5-2.2,3.2-2.2,5.2v48.4c0,2.1,0.7,3.8,2.1,5.2c1.4,1.4,3.2,2.1,5.2,2.1h37.6c2,0,3.7-0.7,5.2-2.2
			c1.5-1.5,2.2-3.2,2.2-5.2v-0.8c0-2.6-0.3-4.3-1-5.2c-0.3-0.5-0.7-0.5-1.2,0c-0.6,0.7-1.8,1.2-3.6,1.6c-1.8,0.4-3.8,0.6-5.9,0.6
			h-22c-2.1,0-3.8-0.7-5.2-2.2c-1.4-1.5-2.1-3.2-2.1-5.3c0-2.1,0.7-3.8,2.1-5.2C487.7,67.5,489.4,66.8,491.5,66.8z M486.4,42.9
			c1.4-1.4,3.1-2.1,5.1-2.1h15.2c2,0,3.7,0.7,5.2,2.2c1.5,1.5,2.2,3.2,2.2,5.3c0,2.1-0.7,3.8-2.2,5.2c-1.5,1.4-3.2,2.1-5.2,2.1
			h-15.2c-2,0-3.7-0.7-5.1-2.1c-1.4-1.4-2.1-3.2-2.1-5.2C484.2,46.1,484.9,44.3,486.4,42.9z"/>
	</g>
	<path class="st25" d="M458.6,92.8h-0.8c-2.1,0-3.6-0.2-4.6-0.6c-0.3-0.6-0.5-1.1-0.6-1.5c0.7-0.8,1.2-1.8,1.6-3.2
		c0.4-1.4,0.6-2.9,0.6-4.6c0-0.8-0.2-1.6-0.5-2.6c-0.3-1-0.7-1.9-1.2-2.9c-0.5-1-1.1-2-1.7-2.9c-0.7-0.9-1.3-1.7-2-2.4
		c-1.4-1.5-3.3-2.7-5.7-3.7c-2.4-1-4.7-1.5-6.7-1.5h-5.2c-2.2,0-4.4,0.5-6.8,1.5c-2.4,1-4.3,2.2-5.8,3.7c-1.4,1.4-2.6,3.2-3.6,5.3
		c-1,2.2-1.6,4-1.6,5.5c0,3.8,0.7,6.4,2.1,7.8c0.5,0.5,0.5,0.8,0,1.2c-0.8,0.6-2.6,0.9-5.2,0.9h-0.8c-2,0-3.7-0.7-5.2-2.2
		c-1.5-1.5-2.2-3.2-2.2-5.2v-6.9c0-2.2,0.5-4.4,1.5-6.7c1-2.4,2.2-4.3,3.5-5.6c1.4-1.4,2.1-3,2.1-5c0-1.9-0.7-3.6-2.1-5
		c-0.7-0.7-1.3-1.5-1.9-2.5c-0.6-1-1.1-2.1-1.6-3.2c-0.5-1.2-0.8-2.3-1.1-3.5c-0.3-1.2-0.4-2.2-0.4-3.1V37c0-2.1,0.7-3.8,2.1-5.2
		c1.4-1.4,3.2-2.1,5.2-2.1h0.8c2.6,0,4.3,0.3,5.2,0.9c0.5,0.4,0.5,0.8,0,1.2c-0.6,0.7-1.1,1.8-1.5,3.2c-0.4,1.5-0.6,3-0.6,4.6
		c0,1.6,0.5,3.5,1.5,5.5c1,2.1,2.2,3.8,3.7,5.3c1.5,1.5,3.4,2.7,5.8,3.7s4.7,1.5,6.7,1.5h5.2c2.1,0,4.3-0.5,6.7-1.5
		c2.4-1,4.4-2.2,5.9-3.7c1.5-1.5,2.7-3.3,3.7-5.4c1-2.1,1.5-3.9,1.5-5.4c0-3.7-0.7-6.3-2.2-7.8c-0.5-0.5-0.5-0.8,0-1.2
		c0.8-0.6,2.6-0.9,5.2-0.9h0.8c2,0,3.7,0.7,5.2,2.2c1.5,1.5,2.2,3.2,2.2,5.2v6.9c0,4.9-1.7,9-5,12.3c-1.4,1.4-2.1,3-2.1,5
		c0,1.9,0.7,3.6,2.1,5.1c1.5,1.4,2.7,3.2,3.6,5.6c0.9,2.3,1.4,4.6,1.4,6.6v6.9c0,2.1-0.7,3.8-2.1,5.2
		C462.5,92,460.7,92.8,458.6,92.8z"/>
	<path class="st25" d="M384.1,107c-3.6-2.6-5.6-5.9-6.3-9.4c2.2-1.3,4.5-2.6,6.7-3.9c-0.4,1.7-0.5,3.5,0,5.3c0.7,2.7,4,5.8,7.3,5
		c9-2.1,7.6-7.8,5.4-6.6c0,0-3-1-1.5-2.2c1.6-1.2,7-1.2,6.3,4.6C401.4,105.4,392,112.7,384.1,107z"/>
	<g>
		<path d="M391.1,33.6c-1.6-1-3.4-2.1-5.3-3.3l3.8-8.7l-9.5,5.5c-4.3-2.4-8.7-4.8-12.3-7c-5.8-3.5-11.3-2.9-16.3-0.1
			c-3.9,2.2-8.7,4.9-13.3,7.6l-10.8-6.3l4.4,10c-2,1.2-3.8,2.2-5.4,3.1c-5,2.8-5.3,6.1-5.3,9.2c0,8.1,0,22.3,0,31
			c0,4.6,1.9,7.9,7.7,11.6c7.4,4.6,19,10.7,25.4,14.9c2.7,1.8,7.5,1.5,10.6,0c7.3-3.4,19.3-10.8,26.8-15.2c5.3-3.1,6.4-7.8,6.4-12.1
			c0-8.8,0-22.7,0-30.5C398.1,39,395.2,36.3,391.1,33.6z M388.3,70.3c0,3.2-0.8,6.7-4.7,9c-5.6,3.3-14.5,8.8-20,11.3
			c-2.4,1.1-5.9,1.3-7.9,0c-4.8-3.1-13.4-7.7-18.9-11.1c-4.3-2.7-5.7-5.2-5.7-8.6c0-6.5,0-17.1,0-23.1c0-2.3,0.2-4.7,4-6.8
			c4.9-2.8,13.1-7.6,18.7-10.8c3.7-2.1,7.8-2.5,12.1,0.1c5.1,3.1,12.6,7,17.3,10.1c3.1,2,5.2,4,5.2,7.3
			C388.3,53.4,388.3,63.8,388.3,70.3z"/>
	</g>
	<path class="st25" d="M327.8,93c0.6,1.7-2.5,0.8-2.5,0.8c-1.1-2-5.6,1.4,0.6,7.5c2.3,2.3,6.7,1.8,8.9,0.2c2.2-1.6,3.4-4.3,4-6.1
		c5.7,3.2,11.4,6.4,15.3,9c0.8,0.5,1.8,0.9,2.9,1.1c3.1,18.6-5.9,28.4-16.4,26.9c-11.7-1.7-7.1-13.4-6.7-15.9
		c0.4-2.5,5.8-4.7,3.8,0.5c-3.2,6.2,3,9.7,7.1,8.7c5-1.2,8-8.4,2.4-18.5c-1.3-2.3-2.3-4.5-3.2-6.8c-2.3,4.2-7,7-13.5,7
		c-9.7,0-13.1-10-10.3-14.5C322.7,88.5,327.2,91.3,327.8,93z"/>
	<g>
		<path d="M316.2,31.7c-1.4-1.4-3.2-2.1-5.2-2.1h-37.3c-2.1,0-3.8-0.7-5.2-2.2c-1.4-1.5-2.1-3.2-2.1-5.2v-7c0-2.2,0.2-4.2,0.6-5.9
			c0.4-1.7,0.9-2.9,1.5-3.5c0.5-0.5,0.5-0.9,0-1.3c-0.8-0.6-2.6-0.9-5.2-0.9h-0.8c-2,0-3.7,0.7-5.2,2.2c-1.5,1.5-2.2,3.2-2.2,5.2
			v74.5c0,2.1,0.7,3.8,2.1,5.2c1.4,1.4,3.2,2.1,5.2,2.1h48.5c2,0,3.7-0.7,5.2-2.2c1.5-1.5,2.2-3.2,2.2-5.2V37
			C318.3,34.9,317.6,33.1,316.2,31.7z M307.1,74.2c0,2-0.7,3.7-2.2,5.2c-1.5,1.5-3.2,2.2-5.2,2.2h-26.2c-2.1,0-3.8-0.7-5.2-2.2
			c-1.4-1.5-2.1-3.2-2.1-5.2v-26c0-2.1,0.7-3.8,2.1-5.2c1.4-1.4,3.1-2.1,5.1-2.1h26.2c2,0,3.7,0.7,5.2,2.2c1.5,1.5,2.2,3.2,2.2,5.2
			V74.2z"/>
		<path class="st4" d="M240.7,3.5h-0.8c-2.2,0-3.7,0.2-4.7,0.6c-1,0.4-1.1,0.9-0.5,1.6c0.7,0.7,1.2,1.9,1.6,3.6
			c0.4,1.7,0.6,3.6,0.6,5.9v7c0,2-0.7,3.7-2.2,5.2c-1.5,1.5-3.2,2.2-5.2,2.2h-37.3c-2,0-3.7,0.7-5.2,2.2c-1.5,1.5-2.2,3.2-2.2,5.2
			v48.4c0,2.1,0.7,3.8,2.1,5.2c1.4,1.4,3.2,2.1,5.2,2.1h48.5c2,0,3.7-0.7,5.2-2.2c1.5-1.5,2.2-3.2,2.2-5.2V10.9c0-2-0.7-3.7-2.2-5.2
			C244.5,4.3,242.7,3.5,240.7,3.5z M236.9,74.2c0,2-0.7,3.7-2.2,5.2c-1.5,1.5-3.2,2.2-5.2,2.2h-26.2c-2.1,0-3.8-0.7-5.2-2.2
			c-1.4-1.5-2.1-3.2-2.1-5.2v-26c0-2.1,0.7-3.8,2.1-5.2c1.4-1.4,3.1-2.1,5.1-2.1h26.2c2,0,3.7,0.7,5.2,2.2c1.5,1.5,2.2,3.2,2.2,5.2
			V74.2z"/>
		<path class="st4" d="M168.7,29.6h-37.6c-2,0-3.7,0.7-5.2,2.2c-1.5,1.5-2.2,3.2-2.2,5.2v48.4c0,2.1,0.7,3.8,2.1,5.2
			c1.4,1.4,3.2,2.1,5.2,2.1h37.6c2,0,3.7-0.7,5.2-2.2c1.5-1.5,2.2-3.2,2.2-5.2v-0.8c0-2.6-0.3-4.3-1-5.2c-0.3-0.5-0.7-0.5-1.2,0
			c-0.6,0.7-1.8,1.2-3.6,1.6c-1.8,0.4-3.8,0.6-5.9,0.6h-22c-2.1,0-3.8-0.7-5.2-2.2c-1.4-1.5-2.1-3.2-2.1-5.3c0-2.1,0.7-3.8,2.1-5.2
			c1.4-1.4,3.1-2.1,5.2-2.1h26.4c2,0,3.7-0.7,5.2-2.2c1.5-1.5,2.2-3.2,2.2-5.2V37c0-2.1-0.7-3.8-2.1-5.2
			C172.5,30.3,170.8,29.6,168.7,29.6z M162.7,53.5c-1.5,1.4-3.2,2.1-5.2,2.1h-15.2c-2,0-3.7-0.7-5.1-2.1c-1.4-1.4-2.1-3.2-2.1-5.2
			c0-2.1,0.7-3.8,2.1-5.2c1.4-1.4,3.1-2.1,5.1-2.1h15.2c2,0,3.7,0.7,5.2,2.2c1.5,1.5,2.2,3.2,2.2,5.3
			C164.9,50.3,164.2,52.1,162.7,53.5z"/>
		<path class="st4" d="M107.6,29.6H68.2c-2,0-3.7,0.7-5.2,2.2c-1.5,1.5-2.2,3.2-2.2,5.2v48.4c0,2.1,0.7,3.8,2.1,5.2
			c1.4,1.4,3.2,2.1,5.2,2.1h39.4c2,0,3.7-0.7,5.2-2.2c1.5-1.5,2.2-3.2,2.2-5.2v-0.8c0-2.6-0.3-4.3-1-5.2c-0.3-0.5-0.7-0.5-1.2,0
			c-0.6,0.7-1.8,1.2-3.6,1.6c-1.8,0.4-3.8,0.6-5.9,0.6H79.4c-2.1,0-3.8-0.7-5.2-2.2c-1.4-1.5-2.1-3.2-2.1-5.3c0-2.1,0.7-3.8,2.1-5.2
			c1.4-1.4,3.1-2.1,5.2-2.1h28.2c2,0,3.7-0.7,5.2-2.2c1.5-1.5,2.2-3.2,2.2-5.2V37c0-2.1-0.7-3.8-2.1-5.2
			C111.4,30.3,109.7,29.6,107.6,29.6z M101.6,53.5c-1.5,1.4-3.2,2.1-5.2,2.1h-17c-2,0-3.7-0.7-5.1-2.1c-1.4-1.4-2.1-3.2-2.1-5.2
			c0-2.1,0.7-3.8,2.1-5.2c1.4-1.4,3.1-2.1,5.1-2.1h17c2,0,3.7,0.7,5.2,2.2c1.5,1.5,2.2,3.2,2.2,5.3
			C103.8,50.3,103.1,52.1,101.6,53.5z"/>
		<path class="st4" d="M44.7,29.6H10.8c-2.1,0-3.8,0.7-5.2,2.1c-1.4,1.4-2.1,3.2-2.1,5.2v22.5c0,2,0.7,3.7,2.2,5.2
			c1.5,1.5,3.2,2.2,5.2,2.2h22.8c2,0,3.7,0.7,5.2,2.1c1.5,1.4,2.2,3.1,2.2,5.2c0,2.1-0.7,3.8-2.2,5.3c-1.5,1.5-3.2,2.2-5.2,2.2H15.1
			c-2.2,0-4.1-0.2-5.9-0.6c-1.8-0.4-3-0.9-3.6-1.6c-0.5-0.5-0.8-0.5-1.2,0c-0.7,0.8-1,2.6-1,5.2v0.8c0,2,0.7,3.7,2.2,5.2
			c1.5,1.5,3.2,2.2,5.2,2.2h33.9c2.1,0,3.8-0.7,5.2-2.1c1.4-1.4,2.1-3.2,2.1-5.2V62.9c0-2-0.7-3.7-2.2-5.2c-1.5-1.5-3.2-2.2-5.2-2.2
			H21.9c-2.1,0-3.8-0.7-5.2-2.1c-1.4-1.4-2.1-3.1-2.1-5.2c0-2.1,0.7-3.8,2.1-5.3c1.4-1.5,3.1-2.2,5.2-2.2h18.4
			c2.2,0,4.1,0.2,5.9,0.6c1.8,0.4,3,0.9,3.6,1.6c0.5,0.5,0.8,0.5,1.2,0c0.7-0.8,1-2.5,1-5.2V37c0-2-0.7-3.7-2.2-5.2
			C48.4,30.3,46.7,29.6,44.7,29.6z"/>
	</g>
	<path class="st25" d="M363.3,105.1c0.7-0.2,1.3-0.4,1.9-0.7c3.3-1.5,7.6-3.9,12-6.4c-1,7.3-3.2,15.2-7.5,23.1
		c-5.6,10.1-2.5,17.4,2.4,18.5c4.1,1,10.3-2.6,7.1-8.7c-2-5.3,3.4-3.1,3.8-0.5c0.4,2.5,5,14.3-6.7,15.9c-11.7,1.7-21.6-10.6-15-33.4
		C362.1,110.1,362.7,107.6,363.3,105.1z"/>
	<path class="st25" d="M412.9,111.3c1.2,0,1.7-0.6,1.7-1.3c0-0.8-0.5-1.2-1.7-1.7c-1.6-0.6-2.4-1.5-2.4-2.5c0-1.5,1.2-2.6,3.1-2.6
		c0.9,0,1.7,0.3,2.2,0.6l-0.4,1.2c-0.4-0.2-1-0.5-1.8-0.5c-1,0-1.5,0.6-1.5,1.2c0,0.7,0.5,1.1,1.7,1.5c1.6,0.6,2.4,1.4,2.4,2.7
		c0,1.6-1.2,2.7-3.4,2.7c-1,0-1.9-0.3-2.5-0.6l0.4-1.2C411.2,110.9,412.1,111.3,412.9,111.3z"/>
	<g>
		<path d="M430.5,107.3c0-1.7-0.8-4.2-3.7-4.2c-2.6,0-4.2,2.1-4.2,4.9c0,2.7,1.7,4.6,4.4,4.6c1.4,0,2.4-0.3,3-0.6l-0.3-1.2
			c-0.6,0.3-1.3,0.5-2.5,0.5c-1.6,0-3-0.9-3.1-3.1h6.3C430.4,107.9,430.5,107.7,430.5,107.3z M424.1,106.9c0.1-1.1,0.9-2.7,2.5-2.7
			c1.8,0,2.3,1.6,2.3,2.7H424.1z"/>
	</g>
	<g>
		<path d="M444.6,107.3c0-1.7-0.8-4.2-3.7-4.2c-2.6,0-4.2,2.1-4.2,4.9c0,2.7,1.7,4.6,4.4,4.6c1.4,0,2.4-0.3,3-0.6l-0.3-1.2
			c-0.6,0.3-1.3,0.5-2.5,0.5c-1.6,0-3-0.9-3.1-3.1h6.3C444.6,107.9,444.6,107.7,444.6,107.3z M438.3,106.9c0.1-1.1,0.9-2.7,2.5-2.7
			c1.8,0,2.3,1.6,2.3,2.7H438.3z"/>
	</g>
	<g>
		<path d="M459.2,110V99.1h-1.6v5.4h0c-0.4-0.7-1.3-1.4-2.7-1.4c-2.2,0-4.1,1.8-4,4.8c0,2.7,1.7,4.6,3.8,4.6c1.5,0,2.6-0.8,3.1-1.8
			h0l0.1,1.6h1.5C459.3,111.7,459.2,110.8,459.2,110z M457.6,108.5c0,0.3,0,0.5-0.1,0.7c-0.3,1.2-1.3,2-2.4,2
			c-1.8,0-2.7-1.5-2.7-3.3c0-2,1-3.5,2.7-3.5c1.2,0,2.1,0.9,2.4,1.9c0.1,0.2,0.1,0.5,0.1,0.7V108.5z"/>
	</g>
	<path class="st25" d="M477.4,107.9c0.3,1,0.5,1.9,0.7,2.9h0.1c0.2-0.9,0.5-1.9,0.8-2.9l1.5-4.6h1.4l1.4,4.5c0.3,1.1,0.6,2,0.8,2.9
		h0.1c0.1-0.9,0.4-1.9,0.7-2.9l1.3-4.5h1.6l-2.9,9h-1.5l-1.4-4.3c-0.3-1-0.6-1.9-0.8-3h0c-0.2,1.1-0.5,2-0.8,3l-1.5,4.3h-1.5l-2.7-9
		h1.7L477.4,107.9z"/>
	<path class="st25" d="M494.9,99.7c0.6,0,1,0.4,1,1c0,0.6-0.4,1-1,1c-0.6,0-1-0.4-1-1C493.9,100.2,494.3,99.7,494.9,99.7z"/>
	<rect x="494.1" y="103.3" class="st25" width="1.6" height="9"/>
	<path class="st25" d="M503.7,101.6l1.6-0.5v2.2h2.3v1.2h-2.3v4.9c0,1.1,0.3,1.7,1.2,1.7c0.4,0,0.7,0,0.9-0.1l0.1,1.2
		c-0.3,0.1-0.8,0.2-1.5,0.2c-0.8,0-1.4-0.3-1.8-0.7c-0.5-0.5-0.6-1.3-0.6-2.3v-4.9h-1.4v-1.2h1.4V101.6z"/>
	<path class="st25" d="M515.9,104.7L515.9,104.7c0.3-0.5,0.7-0.9,1.2-1.2c0.5-0.3,1.1-0.5,1.7-0.5c1.2,0,3.1,0.7,3.1,3.8v5.4h-1.6
		v-5.2c0-1.5-0.5-2.7-2.1-2.7c-1.1,0-1.9,0.7-2.2,1.6c-0.1,0.2-0.1,0.5-0.1,0.8v5.4h-1.6V99.1h1.6V104.7z"/>
	<path class="st25" d="M539.6,104.7L539.6,104.7c0.6-0.9,1.4-1.7,2.9-1.7c1.2,0,2.2,0.7,2.5,1.8h0c0.3-0.5,0.6-0.9,1-1.2
		c0.5-0.4,1.1-0.6,2-0.6c1.2,0,3,0.8,3,3.9v5.3h-1.6v-5.1c0-1.7-0.6-2.8-2-2.8c-0.9,0-1.7,0.7-1.9,1.5c-0.1,0.2-0.1,0.5-0.1,0.8v5.6
		h-1.6v-5.4c0-1.4-0.6-2.5-1.9-2.5c-1,0-1.8,0.8-2,1.6c-0.1,0.2-0.1,0.5-0.1,0.8v5.4h-1.6v-6.6c0-0.9,0-1.7-0.1-2.4h1.4L539.6,104.7
		z"/>
	<g>
		<path d="M562.4,103.1c-2.5,0-4.5,1.8-4.5,4.8c0,2.8,1.9,4.6,4.3,4.6c2.2,0,4.5-1.5,4.5-4.8C566.7,105,564.9,103.1,562.4,103.1z
			 M562.3,111.3c-1.6,0-2.7-1.5-2.7-3.5c0-1.7,0.8-3.5,2.8-3.5c1.9,0,2.7,1.9,2.7,3.5C565,109.8,563.8,111.3,562.3,111.3z"/>
	</g>
	<path class="st25" d="M575.1,104.8L575.1,104.8c0.5-0.9,1.5-1.7,3-1.7c1.2,0,3.2,0.7,3.2,3.8v5.4h-1.6v-5.2c0-1.5-0.5-2.7-2.1-2.7
		c-1.1,0-1.9,0.8-2.2,1.7c-0.1,0.2-0.1,0.5-0.1,0.8v5.4h-1.6v-6.6c0-0.9,0-1.7-0.1-2.4h1.5L575.1,104.8z"/>
	<path class="st25" d="M627.4,105.1L627.4,105.1c0.5-1.2,1.5-2,2.6-2c0.2,0,0.3,0,0.5,0.1v1.5c-0.2,0-0.3-0.1-0.6-0.1
		c-1.2,0-2,0.9-2.2,2.1c0,0.2-0.1,0.5-0.1,0.8v4.8H626v-6.2c0-1.1,0-2-0.1-2.8h1.4L627.4,105.1z"/>
	<path class="st25" d="M709.9,105.1L709.9,105.1c0.5-1.2,1.5-2,2.6-2c0.2,0,0.3,0,0.5,0.1v1.5c-0.2,0-0.3-0.1-0.6-0.1
		c-1.2,0-2,0.9-2.2,2.1c0,0.2-0.1,0.5-0.1,0.8v4.8h-1.6v-6.2c0-1.1,0-2-0.1-2.8h1.4L709.9,105.1z"/>
	<g>
		<path d="M664.9,103.1c-2.5,0-4.5,1.8-4.5,4.8c0,2.8,1.9,4.6,4.3,4.6c2.2,0,4.5-1.5,4.5-4.8C669.2,105,667.5,103.1,664.9,103.1z
			 M664.8,111.3c-1.6,0-2.7-1.5-2.7-3.5c0-1.7,0.8-3.5,2.8-3.5c1.9,0,2.7,1.9,2.7,3.5C667.5,109.8,666.4,111.3,664.8,111.3z"/>
		<path d="M650.4,103.1c-1.5,0-2.5,0.7-3.2,1.7h0l-0.1-1.5h-1.5c0,0.9,0.1,1.8,0.1,2.9v9.7h1.6v-4.9h0c0.5,0.9,1.6,1.4,2.8,1.4
			c2.1,0,4.1-1.6,4.1-4.8C654.2,104.9,652.5,103.1,650.4,103.1z M649.8,111.2c-1.2,0-2.2-0.8-2.5-1.9c0-0.2-0.1-0.4-0.1-0.7v-1.5
			c0-0.2,0.1-0.5,0.1-0.7c0.3-1.2,1.4-2,2.5-2c1.7,0,2.7,1.5,2.7,3.3C652.5,109.8,651.5,111.2,649.8,111.2z"/>
	</g>
	<path class="st25" d="M677.8,107.9c0.3,1,0.5,1.9,0.7,2.9h0.1c0.2-0.9,0.5-1.9,0.8-2.9l1.5-4.6h1.4l1.4,4.5c0.3,1.1,0.6,2,0.8,2.9
		h0.1c0.1-0.9,0.4-1.9,0.7-2.9l1.3-4.5h1.6l-2.9,9h-1.5l-1.4-4.3c-0.3-1-0.6-1.9-0.8-3h0c-0.2,1.1-0.5,2-0.8,3l-1.5,4.3h-1.5l-2.7-9
		h1.7L677.8,107.9z"/>
	<g>
		<path d="M701.6,107.3c0-1.7-0.8-4.2-3.7-4.2c-2.6,0-4.2,2.1-4.2,4.9c0,2.7,1.7,4.6,4.4,4.6c1.4,0,2.4-0.3,3-0.6l-0.3-1.2
			c-0.6,0.3-1.3,0.5-2.5,0.5c-1.6,0-3-0.9-3.1-3.1h6.3C701.6,107.9,701.6,107.7,701.6,107.3z M695.2,106.9c0.1-1.1,0.9-2.7,2.5-2.7
			c1.8,0,2.3,1.6,2.3,2.7H695.2z"/>
	</g>
	<path class="st26" d="M360.4,88.6v-6.5l24.7-13v5.2L360.4,88.6z M360.4,63.9l24.7-2.6v4.9l-24.7,9.1V63.9z M360.4,45.8l24.7,7.9
		v4.9l-24.7-1.3V45.8z M360.4,31.3l24.7,14.3v5.2L360.4,39V31.3z"/>
	<g>
		<polygon class="st6" points="359.8,38.9 335.4,50.4 335.4,45.6 359.8,31.5 		"/>
		<polygon class="st6" points="359.8,57.2 335.4,58.5 335.4,53.4 359.8,45.6 		"/>
		<polygon class="st6" points="359.8,75.5 335.4,66.5 335.4,61.5 359.8,64 		"/>
		<polygon class="st6" points="359.8,88.3 335.4,74.3 335.4,69.5 359.8,82.3 		"/>
	</g>
</g>
</svg>
