<?xml version="1.0" encoding="utf-8"?>
<!-- Generator: Adobe Illustrator 22.1.0, SVG Export Plug-In . SVG Version: 6.00 Build 0)  -->
<svg version="1.1" id="Layer_1" xmlns="http://www.w3.org/2000/svg" xmlns:xlink="http://www.w3.org/1999/xlink" x="0px" y="0px"
	 viewBox="0 0 720 144.3" style="enable-background:new 0 0 720 144.3;" xml:space="preserve">
<style type="text/css">
	.st0{fill:#9B1919;}
	.st1{opacity:0.55;fill:#461C17;enable-background:new    ;}
	.st2{fill:#D23A39;}
	.st3{fill:#B52726;}
	.st4{opacity:0.45;fill:#F1F1F2;enable-background:new    ;}
	.st5{fill:#FFAB00;}
	.st6{fill:#EDA018;}
	.st7{opacity:0.68;}
	.st8{opacity:0.73;fill:#CC6600;enable-background:new    ;}
	.st9{fill:#F9B235;}
	.st10{opacity:0.3;fill:#E8C143;enable-background:new    ;}
</style>
<title>easter logo</title>
<g>
	<g id="Layer_2_1_">
		<g id="Layer_1-2">
			<path class="st0" d="M359,78.2c6.8,3.5,19.4-2.2,25-13.1s2.1-22.7-2.8-25.2c-7.4-3.9-19.7,5.9-24.2,13.8
				C351.7,63.1,351.3,74.2,359,78.2z"/>
			<path class="st1" d="M359,78.2c6.8,3.5,19.4-2.2,25-13.1s2.1-22.7-2.8-25.2c3.5,5.3,4,12,1.5,17.8c-3,6.9-16.3,23.8-28.8,14.4
				C354.7,74.8,356.5,77,359,78.2z"/>
			<path class="st1" d="M380.2,58.6c-0.1,1.5,1.6,3.5,3.1,1.2c3.1-4.7,1.6-13.1,0.7-14.1C382.7,44,383.6,58.4,380.2,58.6z"/>
			<path class="st2" d="M355.3,79c-7.4,1.8-18.4-6.8-21.3-18.7s3.4-22.6,8.8-23.9c8.1-2,17.8,10.5,20.3,19.3
				C366.1,66,363.8,76.9,355.3,79z"/>
			<path class="st3" d="M355.3,79c-7.4,1.8-18.4-6.8-21.3-18.7s3.4-22.6,8.8-23.9c-4.7,4.3-6.8,10.7-5.7,17
				c1.3,7.5,10.2,27.1,24.6,21C360.3,76.7,358,78.4,355.3,79z"/>
			<path class="st4" d="M352.5,72.7c1,1.1,0.9,3.8-1.8,2.8c-5.3-1.9-9.2-9.5-9.1-10.9C341.6,62.5,349.6,74.6,352.5,72.7z"/>
			<path class="st5" d="M682.6,76.6c1.4,1.4,3.2,2.2,5.2,2.2h20.4c2.1,0,4.1-0.2,6.2-0.6c1.3-0.2,2.5-0.8,3.5-1.6
				c0.5-0.5,1-0.4,1.5,0.3s0.8,2.3,0.8,5v0.8c0.1,4.1-3.2,7.4-7.2,7.4c-0.1,0-0.1,0-0.2,0h-36.1c-4.1-0.1-7.4-3.4-7.5-7.5V33.7
				c-0.1-4.1,3.2-7.4,7.2-7.4c0.1,0,0.1,0,0.2,0h36.1c4.1,0,7.4,3.3,7.5,7.4v0.8c0,2.7-0.3,4.5-1,5.2c-0.3,0.5-0.7,0.5-1.2,0
				c-1-0.9-2.3-1.5-3.7-1.6c-2-0.4-4-0.6-6-0.6h-20.4c-2,0-3.9,0.8-5.2,2.2c-1.4,1.4-2.1,3.3-2.1,5.2v26.3
				C680.4,73.3,681.1,75.2,682.6,76.6z"/>
			<path class="st5" d="M657.3,90.1h-36.1c-4.1-0.1-7.4-3.4-7.5-7.4V33.7c-0.1-4.1,3.2-7.4,7.2-7.4c0.1,0,0.1,0,0.2,0h36.1
				c4.1,0.1,7.4,3.4,7.4,7.4v0.8c0,2.7-0.3,4.5-1,5.2c-0.3,0.5-0.7,0.5-1.2,0c-1-0.9-2.3-1.5-3.7-1.6c-2-0.4-4-0.6-6-0.6h-20.4
				c-2,0-3.9,0.8-5.2,2.2c-1.4,1.4-2.1,3.3-2.1,5.2v26.3c0,2,0.7,3.9,2.2,5.3c1.4,1.4,3.2,2.2,5.2,2.2H653c2.1,0,4.1-0.2,6.2-0.6
				c1.3-0.2,2.5-0.8,3.5-1.6c0.5-0.5,1-0.4,1.5,0.3s0.8,2.3,0.8,5v0.8c0.1,4.1-3.2,7.4-7.2,7.4C657.5,90.1,657.4,90.1,657.3,90.1
				L657.3,90.1z"/>
			<path d="M621.6,104.8c0-1.7-0.8-4.3-3.8-4.3c-2.7,0-4.3,2.2-4.3,4.9c-0.2,2.3,1.5,4.4,3.8,4.6c0.2,0,0.4,0,0.6,0
				c1,0,2.1-0.2,3-0.6l-0.3-1.2c-0.8,0.3-1.7,0.5-2.5,0.5c-1.6,0.1-3-1.1-3.1-2.7c0-0.2,0-0.3,0-0.5h6.4
				C621.5,105.3,621.5,105,621.6,104.8z M615.1,104.3c0-1.4,1.1-2.6,2.5-2.7c1.3,0,2.3,1.1,2.3,2.4c0,0.1,0,0.2,0,0.3H615.1z"/>
			<path d="M605.2,106.8c0,1.1,0.3,1.8,1.2,1.8c0.3,0,0.7,0,1-0.1l0.1,1.2c-0.5,0.2-1,0.3-1.5,0.3c-0.7,0-1.3-0.2-1.8-0.7
				c-0.5-0.7-0.7-1.5-0.6-2.4v-5h-1.4v-1.3h1.4V99l1.6-0.5v2.2h2.4v1.3h-2.4L605.2,106.8z"/>
			<path class="st5" d="M601.1,90.1c-3.1,0-5.6-2.5-5.6-5.5c0,0,0,0,0-0.1c0-1.5,0.5-3,1.6-4.1c1-1.1,2.5-1.7,4-1.6
				c3.1-0.1,5.6,2.4,5.7,5.4c0,0.1,0,0.2,0,0.3c0,1.5-0.6,3-1.7,4C604.1,89.5,602.6,90.1,601.1,90.1z"/>
			<path d="M595.5,102.2c-0.6-0.3-1.2-0.5-1.9-0.5c-1,0-1.5,0.6-1.5,1.2s0.5,1.1,1.7,1.5c1.6,0.6,2.4,1.4,2.4,2.7
				c0,1.6-1.2,2.7-3.4,2.7c-0.9,0-1.8-0.2-2.6-0.6l0.4-1.3c0.7,0.4,1.4,0.6,2.2,0.7c1.2,0,1.8-0.6,1.8-1.3s-0.5-1.2-1.7-1.7
				c-1.6-0.6-2.4-1.5-2.4-2.6c0-1.5,1.2-2.7,3.1-2.7c0.8,0,1.5,0.2,2.2,0.6L595.5,102.2z"/>
			<path d="M582.9,90.1h-39.8c-4.1-0.1-7.4-3.4-7.4-7.4v-0.8c0-2.7,0.3-4.4,1-5.2c0.3-0.5,0.7-0.5,1.2,0c1,0.9,2.3,1.5,3.7,1.6
				c2,0.4,4,0.6,6,0.6h24.1c2,0,3.9-0.8,5.2-2.2c1.4-1.4,2.2-3.3,2.2-5.3c0-2-0.7-3.9-2.2-5.2c-1.4-1.4-3.3-2.1-5.2-2.1h-28.5
				c-4.1-0.1-7.4-3.4-7.4-7.5V33.7c-0.1-4.1,3.2-7.4,7.2-7.4c0.1,0,0.1,0,0.2,0h39.8c4.1,0.1,7.4,3.4,7.4,7.4v0.8
				c0,2.7-0.3,4.5-1,5.2c-0.3,0.5-0.7,0.5-1.2,0c-1-0.9-2.3-1.5-3.7-1.6c-2-0.4-4-0.6-6-0.6h-24.1c-2,0-3.9,0.8-5.2,2.2
				c-1.4,1.4-2.1,3.4-2.1,5.3c-0.1,3.9,3,7.2,6.9,7.3c0.1,0,0.3,0,0.4,0h28.5c4.1,0.1,7.4,3.4,7.4,7.5v22.7c0.1,4.1-3.2,7.4-7.2,7.4
				C583.1,90.1,583,90.1,582.9,90.1z"/>
			<path d="M492.7,63.9h26.7c4.1-0.1,7.4-3.4,7.4-7.5V33.7c0.1-4.1-3.2-7.4-7.2-7.4c-0.1,0-0.1,0-0.2,0h-37.9
				c-4.1,0-7.4,3.3-7.5,7.4v48.9c-0.1,4.1,3.2,7.4,7.2,7.4c0.1,0,0.1,0,0.2,0h38c4.1-0.1,7.4-3.4,7.4-7.4v-0.8c0-2.7-0.3-4.4-1-5.2
				c-0.3-0.5-0.7-0.5-1.2,0c-1,0.9-2.3,1.5-3.7,1.6c-2,0.4-4,0.6-6,0.6h-22.3c-2,0.1-3.9-0.8-5.2-2.2c-1.4-1.4-2.1-3.4-2.1-5.3
				c-0.1-4,3-7.2,7-7.3C492.5,63.9,492.6,63.9,492.7,63.9L492.7,63.9z M487.6,39.7c1.4-1.4,3.2-2.2,5.2-2.2h15.4
				c2,0,3.9,0.8,5.2,2.2c1.4,1.4,2.2,3.3,2.2,5.3c0,2-0.8,3.9-2.2,5.2c-1.4,1.4-3.3,2.1-5.2,2.1h-15.4c-1.9,0-3.8-0.7-5.2-2.2
				C484.7,47.4,484.7,42.7,487.6,39.7z"/>
			<path d="M459.6,90.1h-0.8c-1.6,0.1-3.2-0.1-4.7-0.6c-0.3-0.5-0.5-1-0.6-1.5c0.8-0.9,1.3-2.1,1.6-3.2c0.4-1.5,0.6-3.1,0.6-4.7
				c0-0.9-0.2-1.8-0.5-2.6c-0.3-1-0.7-2-1.2-3c-0.5-1-1.1-2-1.7-2.9c-0.6-0.9-1.3-1.7-2-2.4c-1.6-1.6-3.6-2.9-5.8-3.7
				c-2.1-0.9-4.5-1.5-6.8-1.5h-5.2c-2.4,0-4.7,0.6-6.9,1.5c-2.2,0.9-4.1,2.1-5.8,3.7c-1.5,1.6-2.8,3.4-3.7,5.4
				c-0.9,1.7-1.5,3.6-1.6,5.6c0,3.8,0.7,6.4,2.1,7.9c0.5,0.5,0.5,0.9,0,1.2c-0.9,0.6-2.6,0.9-5.2,0.9h-0.8c-4.1-0.1-7.4-3.4-7.4-7.4
				v-7c0-2.3,0.5-4.6,1.5-6.8c0.8-2.1,2-4,3.5-5.7c2.8-2.7,2.8-7.1,0.1-9.9c0,0-0.1-0.1-0.1-0.1c-0.8-0.8-1.4-1.6-1.9-2.6
				c-0.6-1-1.1-2.1-1.6-3.2c-0.5-1.1-0.8-2.3-1.1-3.5c-0.3-1-0.4-2.1-0.4-3.2v-7c-0.1-4.1,3.2-7.4,7.2-7.4c0.1,0,0.1,0,0.2,0h0.8
				c2.6,0,4.4,0.3,5.2,0.9c0.5,0.4,0.5,0.8,0,1.2c-0.8,1-1.3,2.1-1.5,3.3c-0.4,1.5-0.6,3.1-0.6,4.7c0.1,2,0.6,3.9,1.5,5.6
				c0.9,2,2.2,3.8,3.7,5.3c1.7,1.7,3.7,3,5.8,3.8c2.1,0.9,4.5,1.5,6.8,1.5h5.2c2.3-0.1,4.7-0.6,6.8-1.5c2.2-0.9,4.2-2.1,6-3.7
				c1.5-1.6,2.8-3.5,3.7-5.5c0.9-1.7,1.4-3.6,1.5-5.5c0-3.7-0.7-6.4-2.2-7.9c-0.5-0.5-0.5-0.9,0-1.2c0.9-0.6,2.6-0.9,5.2-0.9h0.8
				c4.1,0.1,7.3,3.3,7.4,7.4v7c0.1,4.7-1.7,9.2-5,12.5c-1.4,1.3-2.1,3.1-2.1,5c0,1.9,0.7,3.7,2.1,5.1c1.6,1.6,2.8,3.5,3.6,5.6
				c0.9,2.1,1.4,4.4,1.4,6.7v7c0.1,4.1-3.2,7.4-7.3,7.4C459.7,90.1,459.6,90.1,459.6,90.1L459.6,90.1z"/>
			<path d="M384.3,104.5c-3.3-2.2-5.5-5.6-6.3-9.5c2.3-1.3,4.5-2.6,6.7-4c-0.4,1.7-0.4,3.6,0,5.3c0.7,2.7,4,5.8,7.4,5
				c9.1-2.1,7.7-7.8,5.5-6.7c0,0-3.1-1-1.5-2.2s7.1-1.2,6.4,4.6S392.3,110.2,384.3,104.5z"/>
			<path d="M391.4,30.4c-1.6-1-3.4-2.2-5.4-3.3l3.9-8.8l-9.6,5.5c-4.3-2.4-8.8-4.9-12.4-7c-5.8-3.5-11.4-2.9-16.4-0.1
				c-3.9,2.2-8.7,5-13.4,7.7L327.2,18l4.4,10c-2,1.2-3.9,2.2-5.5,3.1c-5.1,2.9-5.4,6.1-5.4,9.3v31.4c0,4.7,1.9,8,7.8,11.7
				c7.5,4.6,19.2,10.8,25.6,15c2.7,1.8,7.5,1.5,10.7,0c7.4-3.4,19.5-10.9,27-15.3c5.4-3.2,6.4-7.9,6.4-12.2V40.2
				C398.4,35.8,395.5,33.1,391.4,30.4z M388.6,67.4c0,3.2-0.8,6.7-4.8,9.1c-5.6,3.3-14.7,8.9-20.2,11.4c-2.4,1.1-6,1.3-8,0
				c-4.8-3.2-13.6-7.7-19.1-11.2c-4.4-2.7-5.8-5.2-5.8-8.7V44.7c0-2.3,0.2-4.8,4-6.9c4.9-2.8,13.2-7.7,18.9-10.9
				c3.8-2.3,8.5-2.3,12.2,0.1c5.1,3.1,12.7,7,17.5,10.2c3.1,2,5.3,4.1,5.3,7.4L388.6,67.4z"/>
			<path d="M327.5,90.3c0.6,1.7-2.5,0.8-2.5,0.8c-1.1-2-5.6,1.4,0.6,7.6c2.3,2.3,6.8,1.8,9,0.2c2-1.6,3.4-3.8,4-6.2
				c5.7,3.2,11.5,6.5,15.5,9.1c0.9,0.6,1.9,0.9,2.9,1.1c3.2,18.8-5.9,28.7-16.6,27.2c-11.9-1.7-7.2-13.5-6.8-16.1s5.9-4.8,3.8,0.5
				c-3.2,6.2,3,9.8,7.1,8.8c5-1.2,8.1-8.5,2.5-18.7c-1.2-2.2-2.3-4.5-3.2-6.9c-2.4,4.2-7,7.1-13.7,7.1c-9.8,0-13.2-10.1-10.4-14.6
				c1.1-2.2,3.8-3,6-1.8C326.4,88.9,327,89.5,327.5,90.3z"/>
			<path d="M315.8,28.5c-1.4-1.4-3.3-2.2-5.3-2.1h-37.7c-2,0-3.9-0.8-5.2-2.2c-1.4-1.4-2.1-3.3-2.1-5.2v-7.1c0-2,0.2-4,0.6-6
				c0.2-1.3,0.7-2.5,1.5-3.5c0.5-0.5,0.5-0.9,0-1.3c-0.9-0.6-2.6-0.9-5.2-0.9h-0.8c-2,0-3.9,0.8-5.2,2.2c-1.4,1.4-2.3,3.3-2.2,5.2
				v75.2c-0.1,4.1,3.2,7.4,7.2,7.4c0.1,0,0.1,0,0.2,0h49c4.1-0.1,7.4-3.4,7.4-7.4V33.7C317.9,31.8,317.2,29.8,315.8,28.5z
				 M306.6,71.3c-0.1,4.1-3.4,7.4-7.5,7.4h-26.4c-2,0.1-3.9-0.8-5.2-2.2c-1.4-1.4-2.1-3.3-2.1-5.2V45c0-2,0.7-3.9,2.1-5.3
				c1.4-1.4,3.2-2.2,5.2-2.2h26.4c4.1,0.1,7.4,3.4,7.5,7.5V71.3z"/>
			<path class="st5" d="M239.6,0h-0.8c-1.6-0.1-3.2,0.1-4.7,0.6c-1,0.4-1.1,1-0.5,1.6c0.9,1,1.4,2.3,1.6,3.6
				c0.4,1.9,0.6,3.9,0.6,5.9v7.1c0,2-0.8,3.9-2.2,5.2c-1.4,1.4-3.3,2.2-5.2,2.2h-37.7c-4.1,0.1-7.4,3.4-7.4,7.4v48.9
				c-0.1,4.1,3.2,7.4,7.3,7.4c0.1,0,0.1,0,0.2,0h49c4.1-0.1,7.3-3.4,7.4-7.4V7.4c0-2-0.8-3.9-2.2-5.2C243.4,0.8,241.6,0,239.6,0z
				 M235.8,71.3c-0.1,4.1-3.4,7.4-7.4,7.4h-26.4c-2,0.1-3.9-0.8-5.2-2.2c-1.4-1.4-2.1-3.3-2.1-5.2V45c0-2,0.7-3.9,2.1-5.3
				c1.4-1.4,3.2-2.2,5.2-2.2h26.4c4.1,0.1,7.4,3.4,7.5,7.5L235.8,71.3z"/>
			<path class="st5" d="M166.9,26.3h-37.9c-4.1,0.1-7.4,3.4-7.4,7.4v48.9c-0.1,4.1,3.2,7.4,7.2,7.4c0.1,0,0.1,0,0.2,0h37.9
				c4.1-0.1,7.4-3.4,7.4-7.4v-0.8c0-2.7-0.4-4.4-1.1-5.2c-0.3-0.5-0.7-0.5-1.2,0c-1,0.9-2.3,1.5-3.7,1.6c-2,0.4-4,0.6-6,0.6h-22.2
				c-2,0-3.9-0.8-5.2-2.2c-1.4-1.4-2.1-3.4-2.1-5.3c-0.1-3.9,3-7.2,6.9-7.3c0.1,0,0.3,0,0.4,0h26.6c4.1-0.1,7.4-3.4,7.4-7.5V33.7
				c0.1-4.1-3.2-7.4-7.2-7.4C167,26.3,167,26.3,166.9,26.3L166.9,26.3z M160.9,50.4c-1.4,1.4-3.3,2.1-5.2,2.1h-15.4
				c-2,0-3.8-0.7-5.2-2.2c-2.9-2.9-2.9-7.6,0-10.6c1.4-1.4,3.2-2.2,5.2-2.2h15.4c2,0,3.9,0.8,5.2,2.2c1.4,1.4,2.2,3.3,2.2,5.4
				C163.1,47.1,162.3,49,160.9,50.4L160.9,50.4z"/>
			<path class="st5" d="M105.2,26.3H65.4c-4.1,0.1-7.4,3.4-7.4,7.4v48.9c-0.1,4.1,3.2,7.4,7.2,7.4c0.1,0,0.1,0,0.2,0h39.8
				c4.1-0.1,7.4-3.4,7.4-7.4v-0.8c0-2.7-0.3-4.4-1-5.2c-0.3-0.5-0.7-0.5-1.2,0c-1,0.9-2.3,1.5-3.7,1.6c-2,0.4-4,0.6-6,0.6H76.7
				c-2,0-3.9-0.8-5.2-2.2c-1.4-1.4-2.1-3.4-2.1-5.3c-0.1-3.9,3-7.2,6.9-7.3c0.1,0,0.3,0,0.4,0h28.5c4.1-0.1,7.4-3.4,7.4-7.5V33.7
				c0.1-4.1-3.2-7.4-7.2-7.4C105.4,26.3,105.3,26.3,105.2,26.3z M99.2,50.4c-1.4,1.4-3.3,2.1-5.2,2.1H76.7c-2,0-3.8-0.7-5.2-2.2
				c-2.9-2.9-2.9-7.6,0-10.6c1.4-1.4,3.2-2.2,5.2-2.2h17.2c2,0,3.9,0.8,5.2,2.2c1.4,1.4,2.3,3.3,2.2,5.3
				C101.4,47.1,100.6,49,99.2,50.4z"/>
			<path class="st5" d="M41.7,26.3H7.4c-2,0-3.9,0.7-5.3,2.1C0.7,29.8,0,31.8,0,33.7v22.7c0,2,0.8,3.9,2.2,5.2
				c1.4,1.4,3.3,2.2,5.2,2.2h23c1.9,0,3.8,0.8,5.2,2.1c1.5,1.4,2.3,3.3,2.2,5.2c0,2-0.8,3.9-2.2,5.3c-1.4,1.4-3.3,2.2-5.2,2.2H11.9
				c-2,0-4-0.2-6-0.6c-1.4-0.2-2.6-0.7-3.7-1.6c-0.5-0.5-0.9-0.5-1.2,0c-0.7,0.8-1,2.6-1,5.2v0.8c0,2,0.8,3.9,2.2,5.2
				c1.4,1.4,3.3,2.2,5.2,2.2h34.3c4.1,0.1,7.4-3.2,7.4-7.2c0-0.1,0-0.1,0-0.2V59.9c-0.1-4.1-3.4-7.4-7.4-7.5h-23c-4,0.1-7.2-3-7.3-7
				c0-0.1,0-0.2,0-0.3c0-2,0.7-3.9,2.1-5.3c1.3-1.5,3.3-2.3,5.2-2.2h18.6c2,0,4,0.2,6,0.6c1.4,0.2,2.6,0.7,3.7,1.6
				c0.5,0.5,0.9,0.5,1.2,0c0.7-0.8,1-2.5,1-5.2v-0.8C49.1,29.7,45.8,26.4,41.7,26.3L41.7,26.3z"/>
			<path d="M363.4,102.6c0.6-0.2,1.3-0.4,1.9-0.7c3.4-1.6,7.6-3.9,12.1-6.5c-1.1,8.2-3.6,16.1-7.6,23.3c-5.6,10.2-2.5,17.5,2.5,18.7
				c4.2,1,10.4-2.6,7.1-8.8c-2-5.3,3.5-3.1,3.8-0.5s5,14.4-6.8,16.1s-21.8-10.8-15.1-33.7C362.1,107.6,362.8,105,363.4,102.6z"/>
			<path d="M413.4,108.7c1.2,0,1.8-0.6,1.8-1.3s-0.5-1.2-1.7-1.7c-1.6-0.6-2.4-1.5-2.4-2.6c0-1.5,1.2-2.7,3.1-2.7
				c0.8,0,1.5,0.2,2.2,0.6l-0.4,1.2c-0.6-0.3-1.2-0.5-1.9-0.5c-1,0-1.5,0.6-1.5,1.2s0.5,1.1,1.7,1.5c1.6,0.6,2.4,1.4,2.4,2.7
				c0,1.6-1.2,2.7-3.4,2.7c-0.9,0-1.8-0.2-2.5-0.6l0.4-1.3C411.9,108.5,412.6,108.7,413.4,108.7z"/>
			<path d="M431.1,104.8c0-1.7-0.8-4.3-3.8-4.3c-2.6,0-4.3,2.2-4.3,4.9c-0.2,2.3,1.5,4.4,3.8,4.6c0.2,0,0.4,0,0.6,0
				c1,0,2.1-0.2,3-0.6l-0.3-1.2c-0.8,0.3-1.6,0.5-2.5,0.5c-1.6,0.1-3-1.1-3.1-2.7c0-0.2,0-0.3,0-0.5h6.4
				C431.1,105.4,431.1,105.1,431.1,104.8z M424.7,104.3c0-1.4,1.1-2.6,2.5-2.7c1.3,0,2.3,1.1,2.3,2.4c0,0.1,0,0.2,0,0.3H424.7z"/>
			<path d="M445.4,104.8c0-1.7-0.8-4.3-3.8-4.3c-2.6,0-4.3,2.2-4.3,4.9c-0.2,2.3,1.5,4.4,3.8,4.6c0.2,0,0.4,0,0.6,0
				c1,0,2.1-0.2,3-0.6l-0.3-1.2c-0.8,0.3-1.7,0.5-2.5,0.5c-1.6,0.1-3-1.1-3.1-2.7c0-0.2,0-0.3,0-0.5h6.4
				C445.4,105.3,445.4,105,445.4,104.8z M439,104.3c0-1.4,1.1-2.6,2.5-2.7c1.3,0,2.3,1.1,2.3,2.4c0,0.1,0,0.2,0,0.3H439z"/>
			<path d="M460.2,107.4v-11h-1.6v5.4l0,0c-0.6-0.9-1.6-1.5-2.7-1.4c-2.2,0-4.1,1.8-4.1,4.9c0,2.8,1.7,4.6,3.9,4.6
				c1.3,0,2.5-0.6,3.1-1.8l0,0l0.1,1.6h1.5C460.2,109.2,460.2,108.2,460.2,107.4z M458.5,106c0,0.2,0,0.5-0.1,0.7
				c-0.2,1.2-1.2,2-2.4,2c-1.8,0-2.7-1.5-2.7-3.4c0-2,1-3.5,2.7-3.5c1.1,0,2.1,0.8,2.4,1.9c0.1,0.2,0.1,0.5,0.1,0.7V106z"/>
			<path d="M478.5,105.3c0.3,1,0.5,2,0.7,2.9h0.1c0.2-0.9,0.5-1.9,0.8-2.9l1.5-4.6h1.4l1.4,4.6c0.3,1.1,0.6,2,0.8,3h0.1
				c0.2-1,0.4-2,0.7-3l1.3-4.6h1.6l-2.9,9.1h-1.5l-1.4-4.3c-0.3-1-0.6-1.9-0.8-3l0,0c-0.2,1-0.5,2-0.8,3l-1.5,4.3h-1.5l-2.7-9.1h1.7
				L478.5,105.3z"/>
			<path d="M496.2,97.1c0.6,0,1,0.4,1,1s-0.4,1-1,1s-1-0.4-1-1S495.6,97.1,496.2,97.1z"/>
			<rect x="495.4" y="100.7" width="1.6" height="9.1"/>
			<path d="M505,99l1.6-0.5v2.2h2.4v1.3h-2.4v4.9c0,1.1,0.3,1.8,1.2,1.8c0.3,0,0.6,0,1-0.1l0.1,1.2c-0.5,0.2-1,0.3-1.5,0.2
				c-0.7,0-1.3-0.2-1.8-0.7c-0.5-0.7-0.7-1.5-0.6-2.4v-5h-1.4v-1.3h1.4V99z"/>
			<path d="M517.4,102.1L517.4,102.1c0.3-0.5,0.7-0.9,1.2-1.1c0.5-0.3,1.1-0.5,1.7-0.5c1.2,0,3.2,0.8,3.2,3.9v5.4h-1.7v-5.2
				c0-1.5-0.5-2.7-2.1-2.7c-1,0-1.9,0.7-2.2,1.7c-0.1,0.3-0.1,0.5-0.1,0.8v5.5h-1.7V96.4h1.7V102.1z"/>
			<path d="M541.3,102.2L541.3,102.2c0.6-1.1,1.7-1.7,2.9-1.7c1.2,0,2.2,0.7,2.6,1.8l0,0c0.2-0.5,0.6-0.9,1-1.2
				c0.6-0.4,1.3-0.7,2-0.6c1.2,0,3,0.8,3,3.9v5.3h-1.6v-5.2c0-1.7-0.6-2.8-2-2.8c-0.9,0-1.7,0.6-2,1.5c-0.1,0.3-0.1,0.5-0.1,0.8v5.6
				h-1.6v-5.4c0-1.4-0.6-2.5-1.9-2.5c-0.9,0.1-1.8,0.7-2,1.7c-0.1,0.3-0.1,0.5-0.1,0.8v5.5h-1.6v-6.6c0-0.9,0-1.7-0.1-2.5h1.4
				L541.3,102.2z"/>
			<path d="M564.3,100.5c-2.5,0-4.5,1.8-4.5,4.8c-0.2,2.4,1.6,4.5,4,4.7c0.1,0,0.3,0,0.4,0c2.5,0.1,4.5-1.9,4.5-4.3
				c0-0.2,0-0.3,0-0.5C568.7,102.4,566.9,100.5,564.3,100.5z M564.2,108.7c-1.6,0-2.8-1.5-2.8-3.5c0-1.7,0.8-3.5,2.8-3.5
				s2.7,2,2.7,3.5C567,107.3,565.8,108.7,564.2,108.7z"/>
			<path d="M577.1,102.2L577.1,102.2c0.6-1.1,1.8-1.7,3-1.7c1.2,0,3.2,0.8,3.2,3.9v5.4h-1.7v-5.2c0-1.5-0.5-2.7-2.1-2.7
				c-1,0-1.9,0.7-2.2,1.7c-0.1,0.2-0.1,0.5-0.1,0.8v5.5h-1.7v-6.6c0-0.9,0-1.7-0.1-2.5h1.5L577.1,102.2z"/>
			<path d="M629.9,102.5L629.9,102.5c0.4-1.1,1.4-2,2.6-2c0.2,0,0.3,0,0.5,0.1v1.6c-0.2,0-0.4-0.1-0.6-0.1c-1.2,0.1-2.1,1-2.2,2.1
				c0,0.3-0.1,0.5-0.1,0.8v4.8h-1.6v-6.2c0-1.1,0-2-0.1-2.8h1.4L629.9,102.5z"/>
			<path d="M713.2,102.5L713.2,102.5c0.4-1.1,1.4-2,2.6-2c0.2,0,0.3,0,0.5,0.1v1.6c-1.2-0.3-2.4,0.5-2.7,1.7c0,0.1,0,0.2-0.1,0.4
				c0,0.3-0.1,0.5-0.1,0.8v4.8h-1.6v-6.2c0-1.1,0-2-0.1-2.8h1.4L713.2,102.5z"/>
			<path d="M667.8,100.5c-2.5,0-4.5,1.8-4.5,4.8c-0.2,2.4,1.6,4.5,4,4.7c0.1,0,0.3,0,0.4,0c2.5,0.1,4.5-1.9,4.5-4.3
				c0-0.2,0-0.3,0-0.5C672.2,102.4,670.4,100.5,667.8,100.5z M667.7,108.7c-1.6,0-2.8-1.5-2.8-3.5c0-1.7,0.8-3.5,2.8-3.5
				s2.7,2,2.7,3.5C670.5,107.3,669.3,108.7,667.7,108.7z"/>
			<path d="M653.1,100.5c-1.3-0.1-2.6,0.6-3.2,1.8l0,0l-0.1-1.6h-1.5c0,0.9,0.1,1.8,0.1,3v9.8h1.6v-4.9l0,0c0.6,0.9,1.7,1.5,2.8,1.4
				c2.1,0,4.1-1.6,4.1-4.9C657,102.3,655.3,100.5,653.1,100.5z M652.5,108.7c-1.2,0-2.2-0.8-2.5-1.9c0-0.2-0.1-0.5-0.1-0.7v-1.6
				c0-0.2,0-0.5,0.1-0.7c0.3-1.2,1.3-2,2.5-2c1.8,0,2.7,1.6,2.7,3.4C655.3,107.3,654.3,108.7,652.5,108.7z"/>
			<path d="M680.8,105.3c0.3,1,0.5,2,0.7,2.9h0.1c0.2-0.9,0.5-1.9,0.8-2.9l1.5-4.6h1.4l1.4,4.6c0.3,1.1,0.6,2,0.8,3h0.1
				c0.2-1,0.4-2,0.7-3l1.3-4.6h1.6l-2.9,9.1h-1.5l-1.4-4.3c-0.3-1-0.6-1.9-0.8-3l0,0c-0.2,1-0.5,2-0.8,3l-1.5,4.3h-1.5l-2.7-9.1h1.7
				L680.8,105.3z"/>
			<path d="M704.8,104.8c0-1.7-0.8-4.3-3.8-4.3c-2.7,0-4.3,2.2-4.3,4.9c-0.2,2.3,1.5,4.4,3.8,4.6c0.2,0,0.4,0,0.7,0
				c1,0,2.1-0.2,3-0.6l-0.3-1.2c-0.8,0.3-1.6,0.5-2.5,0.5c-1.6,0.1-3-1.1-3.1-2.7c0-0.2,0-0.3,0-0.5h6.4
				C704.8,105.4,704.8,105.1,704.8,104.8z M698.4,104.3c0-1.4,1.1-2.6,2.5-2.7c1.8,0,2.3,1.6,2.3,2.7H698.4z"/>
			<path class="st6" d="M336.9,66c0.4-0.1,0.9,0,1.3,0.2c2,1.5,4,2.9,6.1,4.3c-0.8-0.7-1.2-1-1.9-1.7l0.1-0.3
				c2.9,2.8,6.4,4.7,10.3,5.7c2,0.3,4.1,0.4,6.1,0.2c2-0.2,4-0.3,5.9-0.5l0.1,0.2c-0.8,0.3-1.2,0.4-2.1,0.6
				c3.4-0.5,6.9-1.3,10.2-2.3c0.6-1,1.3-2,2.1-3l0.4,0.1c-0.5,0.8-1,1.8-1.3,2.7c1.2-1.5,2.4-3,3.7-4.4l0.6,0.1
				c-1,1.3-1.9,2.6-2.7,4c1.7-1.1,3.3-2.3,4.9-3.5c1-1.9,2.2-3.7,3.3-5.5c0.2,0,0.3,0,0.5,0c-0.7,1.4-1.4,2.8-2,4.2l1.3-1
				c0.9-1.3,1.8-2.6,2.8-3.9c0.6-0.1,0.7,0,0.7,0s-1.1,1.8-1.6,2.6c1.1-0.7,1.5-1,1.5-1l0.4,0.2c-0.9,1-1.8,2-2.9,2.9
				c1.1-0.7,1.7-1.1,2.8-1.9l0.3,0.5c-1.6,1.3-3.2,2.5-4.8,3.7c1.6-0.5,3.2-1,4.8-1.5c-0.2,0.5-0.4,0.7-0.6,1.2
				c1.1-0.9,2.3-1.8,3.5-2.6l0.6,0.5c-1.4,1.1-2.9,2.2-4.3,3.2c1.3-0.6,2.7-1.1,4.1-1.6c0.1,0.4,0.1,0.6,0.2,1
				c-1.3,0.2-2.7,0.6-3.9,1.2c1.4-0.2,1.4,0.1,1.4,0.1c0.1,0.5,0.2,0.8,0.3,1.3c-0.6,1.1-1.3,2.1-2,3.2c0.3,0.8,0.3,1.7,0.3,2.6
				c0.8-0.2,1.7-0.3,2.5-0.2c-0.1,0.4-0.2,0.6-0.3,0.9c-1.7,0.2-3.4,0.5-5.1,0.9c1,0,2,0.1,3,0.3c-0.3,0.3-0.4,0.5-0.7,0.8h-1
				c-1,4.4-7.3,6-11,6.7c0.9,0.1,1.3,0.2,2.2,0.3l-0.7,0.7l-2.3-0.3l0.8,0.5l-0.5,0.3c-1.3-0.3-1.9-0.4-3.2-0.8
				c-1.1,0.2-2.3,0.4-3.5,0.5c0.3,0.4,0.4,1,0.3,1.5l-1.1,0.1c0-0.4-0.1-0.7-0.3-1c-0.1,0.5-0.2,1.1-0.4,1.6h-1.1
				c0.1-0.5,0.1-1-0.1-1.4c-5.4,0.7-10.9,0.2-16.1-1.3c-0.8-0.2-1.7-0.4-2.6-0.5c-0.8,0.2-1.6,0.4-2.4,0.7l-1.2-0.3
				c0.2-0.3,0.4-0.4,0.6-0.6c-0.8,0-1.6,0.2-2.3,0.4c-0.8-0.4-0.8-0.5-0.8-0.5c0.9-0.3,1.9-0.6,2.9-0.7c-3.9-1.4-7.4-3.9-10-7.1
				l-2.5,0.7c-0.2-0.3-0.2-0.4-0.4-0.7l2.5-0.8c-1.1,0.1-1.6,0.2-2.7,0.3c-0.1-0.4-0.2-0.6-0.3-1c1.2-0.2,1.9-0.2,3-0.4
				c-0.1-0.7-0.1-1-0.2-1.7l-0.2-0.3c0.2-0.2,0.4-0.3,0.6-0.5c-1.4-0.5-2.2-0.7-3.6-1.2l0.1-0.7l1.8,0.4c-1.2-0.6-1.8-1-2.9-1.7
				l0.6-0.8c1.3,0.8,1.9,1.2,3.3,2c-0.3-0.5-0.4-0.8-0.6-1.2c1.2-0.6,1.7-0.9,2.8-1.5c-1.1-0.1-1.6-0.1-2.7-0.2l0.5-1.3
				c1.5,0,2.1,0.1,3.5,0.1c-1-0.4-1.5-0.6-2.4-1c0.6-0.4,0.9-0.7,1.5-1.1c-0.6-1.1-1.1-2.3-1.6-3.4l0.4-0.3c0.5,0.8,0.8,1.2,1.3,1.9
				l0.6-0.6c0.4,1.1,0.9,2.2,1.5,3.2c1.2,0.6,1.8,0.9,3.1,1.4C338.7,67.6,337.8,66.8,336.9,66z"/>
			<g class="st7">
				<path class="st8" d="M341.6,72.4c5.9,6.8,16.2,7.9,24.4,5.4c0.4,0.1,0.4,0.3,0.4,0.3c-10.8,3.2-22.5,0.3-30.5-7.5
					c0.1-0.1,0.3-0.1,0.4-0.2c2,2.2,4.5,3.8,7.2,4.8c-1-0.8-1.9-1.7-2.6-2.8L341.6,72.4z"/>
				<path class="st8" d="M333.4,74.4c1.2,1.4,2.7,2.4,4.4,3c3.4,1.2,6.9,1.9,10.5,2.2c2.1,0.2,4.2,0.2,6.3,0.2l1.3,0.1
					c-1.8,0.1-3.5,0.1-5.3,0.1c-3.1,0-6.2-0.2-9.3-0.6c-2-0.2-3.9-0.8-5.6-1.8c-1.2-0.7-2.2-1.6-3-2.7L333.4,74.4z"/>
				<path class="st8" d="M344.9,80.5c4.4,1.6,9,2.7,13.7,3.3c3.4,0.2,6.8-0.2,10.1-1c0.7-0.2,1.3-0.4,2-0.7
					c-1.5,0.8-2.3,1.1-3.8,1.8c-3,0.4-6.1,0.5-9.1,0.5c-5.6-0.2-11.1-1-16-4C343.4,80.5,344.9,80.5,344.9,80.5z"/>
				<path class="st8" d="M339.6,80.1c4.7,1.4,8.6,4.7,13.8,4.9c-6.7,0.4-12.3-2.3-17.7-5.9l0.6,0.1
					C336.3,79.2,338.7,79.8,339.6,80.1z"/>
				<path class="st8" d="M335.2,70.7c0.3,0.3,0.5,0.5,0.8,0.8c0,0-0.9,0.4,0.6,1.6c1.2,0.8,2.4,1.5,3.7,2.1c0.9,0.5,1.7,1,2.6,1.4
					c-1.9-0.3-3.7-0.8-5.5-1.4c-1.4-0.5-2.5-2-3.5-3.2S333.6,70.8,335.2,70.7z"/>
				<path class="st8" d="M334.5,70.1c0,0-1.9,0.5-1.9,0.9c0.4,1.7,2.1,3.3,3.6,4.2c2.1,1.3,4.8,1.7,7.2,2.2c2.6,0.5,2.6,0.5,2.6,0.5
					c1.4,0.5,2.9,1,4.4,1.3c-3.5-0.4-6.9-1-10.3-1.9c-2.2-0.5-4.2-1.6-5.9-3.2c-1.5-1.6-2.4-2.7-2.4-3.2s2.4-1.4,2.4-1.4
					C334.3,69.8,334.4,69.9,334.5,70.1z"/>
				<path class="st8" d="M348.6,80.6c2.7,1,5.6,1.7,8.4,2.1c3,0.5,6,0.5,9-0.2c1.6-0.4,3.1-1,4.6-1.8c1.6-0.2,2.4-0.3,4-0.7
					c-2.5,1.2-5.2,2.2-7.9,2.8c-4,0.7-8,0.7-12-0.1c-2.6-0.5-5.2-1.2-7.7-2.1C347.7,80.7,348,80.7,348.6,80.6z"/>
				<path class="st8" d="M354.9,85.7c2.8,0.7,5.8,0.8,8.6,0.1c3-0.9,5.8-2.3,8.4-4c0.9-0.3,1.3-0.4,2.1-0.7c-2.5,2-5.2,3.6-8.1,4.8
					c-2.7,0.9-5.6,1.1-8.5,0.7c-1.2-0.1-2.3-0.3-3.4-0.6L354.9,85.7z"/>
				<path class="st8" d="M351.9,80.6c4.9,1.7,10.6,2.4,15.5,0.5c0.6,0,1.1,0,1.7-0.1c-4.2,2.8-10.1,1.9-14.8,1c-3.8-0.9-3.8-1-3.8-1
					L351.9,80.6z"/>
				<path class="st8" d="M336.7,80.6c4.4,3.4,9.8,5.3,15.4,5.3c0.6,0.2,1.2,0.4,1.8,0.4c-6.4,0.2-12.7-1.7-17.8-5.5
					C336.2,80.7,336.5,80.6,336.7,80.6z"/>
				<path class="st8" d="M341.5,84.4c0,0,9.2,2.5,13.8,2.2c1.2,0.2,3.1,0.4,3.1,0.4C352.8,87.7,341.5,84.4,341.5,84.4z"/>
				<path class="st8" d="M335.3,78.1c-1.5,0.1-2.9,0.4-4.3,0.7l-0.2-0.1c1.2-0.4,1.8-0.6,3-1c-1.4,0-2.1,0-3.5,0.1l-0.1-0.5
					c1.5-0.2,2.1-0.2,3.5-0.4C334.2,77.2,334.6,77.5,335.3,78.1z"/>
				<path class="st8" d="M328.6,70.8l0.2-0.3c1.2,0.8,1.8,1.2,3.1,1.9c0.4,0.4,0.6,0.7,1,1.1l-0.4,0.3c-1.1-0.3-1.6-0.5-2.7-0.9
					c0-0.1,0-0.2,0-0.3l2.4,0.4C330.7,72.1,330,71.6,328.6,70.8z"/>
				<path class="st8" d="M343,85.9c-0.9,0.2-1.4,0.3-2.4,0.4l0.3,0.2c1.1-0.1,1.6-0.2,2.7-0.3c-0.2,0.3-0.3,0.4-0.5,0.7l0.6,0.3
					l1.6-0.7C344.3,86.3,343.9,86.2,343,85.9z"/>
				<path class="st8" d="M351.7,87.7c1.5,0,3.1,0,4.6,0c2.7,0.3,5.3,0.3,8,0c0.7,0.2,1.3,0.2,2,0.3c-2,0.2-4,0.3-6.1,0.3
					c1.2,0.1,2.4,0.2,3.6,0.1C359.8,88.9,355.7,88.6,351.7,87.7z"/>
				<path class="st8" d="M353.8,80.6c0.7,0,1,0,1.7-0.1c1.1,0.3,2.2,0.5,3.3,0.6c-1.9-0.3-2-0.6-2-0.6c1,0,2-0.2,3-0.4
					c1.9,0.5,3.8,0.8,5.7,1C365.6,81.1,357.4,81.8,353.8,80.6z"/>
				<path class="st8" d="M358.1,85l-1.5,0.4c2.7,0.6,5.6,0.4,8.2-0.5C362.6,85.3,360.3,85.3,358.1,85z"/>
				<path class="st8" d="M369,85.6c5.2,0,10.9-1.3,14.7-5.1l0.7-0.1c-3.9,5.2-11.4,6.2-17.4,6.2c0.4-0.1,0.7-0.2,1-0.4
					c2.5,0,5-0.3,7.5-0.9c-2.3,0.4-4.7,0.6-7,0.6L369,85.6z"/>
				<path class="st8" d="M370.4,85c3.9-0.4,8-1.5,11-4.1c0.5-0.2,1-0.2,1.6-0.2c-3.6,3.3-8.3,4.5-13,4.7L370.4,85z"/>
				<path class="st8" d="M382.1,80.2c1.7-0.2,2.6-0.3,4.3-0.5l0.2-0.4c-1.2-0.1-1.8-0.2-3-0.3c1.7-0.7,3.5-1.1,5.3-1.3
					c0.2-0.4,0.2-0.4,0.2-0.4c-1.5,0.2-2.9,0.4-4.4,0.5C384,78.6,383,79.4,382.1,80.2z"/>
				<path class="st8" d="M371.6,83.9c4.6-0.9,8.7-3.3,11.6-7c0.4-0.2,0.8-0.4,1.3-0.6c-0.9,1.4-2.1,2.7-3.4,3.7
					c1.3-0.9,2.5-2,3.5-3.3l0.5-0.2c-3.4,4.7-8.8,6.9-14.3,7.9C371.1,84.2,371.3,84.1,371.6,83.9z"/>
				<path class="st8" d="M374.7,81.6c-0.6,0.6-1,0.9-1.6,1.5c3.3-1.1,6.6-2.5,8.8-5.2c-0.4,0.2-0.8,0.3-1.2,0.4
					C378.9,79.7,376.9,80.9,374.7,81.6z"/>
				<path class="st8" d="M376.8,79.7c-0.4,0.4-0.6,0.6-1,1c1.3-0.4,2.5-1,3.5-1.9C378.5,79.2,377.6,79.5,376.8,79.7z"/>
				<path class="st8" d="M365.6,79.1c3.7,0.2,7.4-0.4,10.9-1.8c1.2-0.2,2.5-0.5,2.5-0.5c-2.5,1.3-5.2,2.2-8,2.4
					c3.2-0.4,6.2-1.2,9.1-2.6c1.3-0.2,2.5-0.5,3.7-1c-5.9,4.9-14.5,5.2-21.8,4.3c0.5-0.1,0.9-0.2,1.4-0.4c2,0.1,4.1,0.1,6.1-0.1
					c-1.5,0.2-3,0.1-4.5-0.2L365.6,79.1z"/>
				<path class="st9" d="M332.6,68.7c3.5,0.4,7,1.3,10.4,2.5c-0.9-0.1-1.8-0.2-2.7-0.2l0.1,0.3c6.2,1,11.9,3.3,17.6,5.7
					c-0.6,0-1.2,0-1.8,0.1l0.1,0.3c9.7-0.4,19.2-1.5,28.5-4.5c2.7-0.8,3.5-1.1,3.5-1.1c-0.2-0.4-0.2-0.6-0.4-0.9
					c-4.8,1.8-9.6,3.3-14.6,4.5c-5.3,1.1-10.7,1.2-16.1,0.4c2.4-0.1,4.7-0.5,7-0.9l-0.2-0.3c-3.4,0.8-6.9,0.7-10.3-0.2
					c-2.9-0.9-5.7-2.1-8.2-3.7l-0.2,0.1c0.6,0.5,0.9,0.7,1.6,1.1c-2.6-1.5-5.1-3.2-7.5-5h-0.5c1.2,1,2.5,2,3.9,2.9
					c-2.6-1-5.1-2.2-7.5-3.5l-0.6,0.6c1.5,0.8,3,1.5,4.5,2.2c-2.1-0.3-4.3-0.8-6.5-1L332.6,68.7z"/>
				<path class="st9" d="M333.5,63.2c0.4,0.8,0.8,1.7,1.3,2.5l1.3,0.5c-0.4-0.8-0.6-1.3-0.9-2.1l-0.3,0.3c0.1,0.4,0.1,0.6,0.2,1
					c-0.5-0.7-1-1.4-1.4-2.1L333.5,63.2z"/>
				<path class="st8" d="M371.4,77.1c5.1-0.5,10.1-1.5,15-3.1c0.2-0.4,0.3-0.6,0.5-1.1c-4.9,1.9-10,3.2-15.1,3.8L371.4,77.1z"/>
				<path class="st8" d="M369,77.8c1.9,0,3.7-0.1,5.6-0.3c-2.2,0.5-4.5,0.8-6.7,0.9C368.3,78.1,369,77.8,369,77.8z"/>
				<path class="st8" d="M337.9,70.4c0.7,0.8,1.1,1.3,1.8,2.1c-1-0.6-2-1.4-2.7-2.3L337.9,70.4z"/>
				<path class="st8" d="M365.2,88.6c0.1,0.4,0.1,0.8,0,1.2h0.6c0,0,0.2-1.1,0.2-1.4C365.7,88.5,365.4,88.6,365.2,88.6z"/>
				<path class="st8" d="M366.6,88.3c0.1,0.2,0.2,0.5,0.3,0.8c0.2,0,0.4,0,0.6-0.1c-0.1-0.4-0.1-0.6-0.2-0.9L366.6,88.3z"/>
				<path class="st8" d="M343.2,72.4c1.2,1.3,2.7,2.2,4.4,2.6c1.5,0.2,3,0.3,4.5,0.3c0.6,0.2,0.9,0.4,1.5,0.6
					c-2.4,0.1-4.8-0.1-7.1-0.6c-1.7-0.4-3-1.8-4.3-3C342.6,72.4,342.8,72.4,343.2,72.4z"/>
				<path class="st8" d="M354.8,76.5c-1.2,0.3-1.8,0.4-3,0.6c2.9,0.4,5.9,0.7,8.8,0.7c1,0.1,1.5,0.1,2.5,0.1
					c-4.5,1-9.1,0.7-13.4-0.9c-0.7-0.2-1.3-0.6-1.8-1c2.1,0.2,4.1,0.3,6.2,0.3L354.8,76.5z"/>
				<path class="st8" d="M364.9,87.1c6.4,0.3,12.7-1.3,18.2-4.6c-2.7,3-7.3,3.8-11.1,4.4c-2.6,0.4-5.3,0.5-8,0.4L364.9,87.1z"/>
				<path class="st8" d="M371.6,87.2c0.9,0.3,1.4,0.4,2.4,0.6l0.2-0.1l-1-0.8c1,0.1,1.4,0.2,2.4,0.3l0.3-0.4l-1.9-0.2
					C373,87,372.5,87.1,371.6,87.2z"/>
				<path class="st9" d="M376.9,72.9c3.1-2.4,6.3-4.8,9.4-7.2l-0.2-0.1c-0.9,0.7-1.9,1.3-2.9,1.9c1.2-1,2.2-2.1,3.2-3.3h-0.4
					c-4.4,3.2-8.7,6.5-13.2,9.5c1.3-0.2,1.7-0.2,1.7-0.2c1.8-1.2,3.6-2.4,5.4-3.7c-1.4,1.1-2.7,2.2-4.1,3.3L376.9,72.9z"/>
				<path class="st9" d="M362.2,76c3.9,0.1,7.8-0.2,11.5-1.1c4.4-1.1,8.5-2.8,12.4-5.2c-0.1-0.2-0.1-0.3-0.2-0.5
					c-6.4,3.5-13.4,5.6-20.7,6l-0.5,0.4c1.3,0,1.9,0,3.2-0.1c-1.9,0.2-3.7,0.3-5.6,0.3L362.2,76z"/>
				<path class="st9" d="M369.8,74.5c0.8-0.3,1.2-0.4,2-0.8l0.1-0.5c-0.8,0.3-1.1,0.5-1.9,0.8c0.8-0.4,1.2-0.6,2-1.1
					c0-0.2,0-0.2,0-0.4c-1.7,0.8-3.5,1.5-5.3,2.2C368,74.7,368.6,74.6,369.8,74.5z"/>
				<path class="st9" d="M377.7,67.9c-0.9,1.1-1.7,2.3-2.4,3.6c-0.8,0.7-1.6,1.3-2.5,1.8c0.4-1.2,1-2.3,1.6-3.3h0.2
					c-0.5,0.7-0.8,1.5-0.9,2.3c1.2-1.4,2.5-2.9,3.6-4.4L377.7,67.9z"/>
				<path class="st9" d="M384.7,69.4l0.5-0.8c-1.4,0.4-2,0.7-3.4,1l0.3-0.4l1.2-0.3h-0.7l0.2-0.2c1.7-0.4,2.5-0.7,4.2-1.2
					c-0.3,0.5-0.4,0.8-0.7,1.3C385.7,69.1,385.4,69.2,384.7,69.4z"/>
				<path class="st8" d="M345.5,73c1.5,0.4,3.1,0.9,4.5,1.5c0.4,0.3,0.2,0.3,0.2,0.3l-1.8-0.3c0.7,0.2,1.4,0.4,2.1,0.4l0.3,0.2
					c-1.4,0-2.7-0.2-4-0.7c-0.9-0.4-1.7-0.9-2.4-1.6L345.5,73z"/>
				<path class="st9" d="M381.1,71.1c0,0,1.1-1,0-0.8c0.1-0.1,0.1-0.2,0.2-0.3c0,0,1.3-0.3,2.3-0.6c0.7-0.1,0,0.7,0,0.7
					C382.6,70.5,382.1,70.7,381.1,71.1z"/>
				<path class="st10" d="M377.9,72.5l0.8-0.9l0.4-0.1l-0.3,0.4l0.6-0.5h0.3c-0.2,0.3-0.4,0.5-0.6,0.8L377.9,72.5z"/>
				<path class="st9" d="M379.6,71c0,0,0.7-0.2,0.3,0.3c-0.2,0.2-0.3,0.5-0.5,0.7l0.8-0.3c0.3-0.3,0.6-0.7,0.8-1.1
					c0.2-0.5-1.1-0.1-1.1-0.1L379.6,71z"/>
				<path class="st9" d="M381.4,72.6c2-0.6,4-1.3,6-2l-0.3-0.1l-1.3,0.2c1.4-0.9,2.9-1.5,4.5-2c0.1-0.4,0-0.5,0-0.5
					c-1.3,0.6-2.7,1.2-4,1.7C384.7,70.8,383.1,71.8,381.4,72.6z"/>
				<path class="st9" d="M387.6,68.5c1.2-0.8,1.7-1.2,2.8-2.2l-0.2-0.2c-1,0.9-1.6,1.3-2.7,2.1C387.5,68.3,387.5,68.4,387.6,68.5z"
					/>
				<path class="st9" d="M381.2,67.4c0.3-0.2,0.5-0.3,0.8-0.5c0.8-1.3,1.4-2.6,2-4l-0.1-0.1C382.9,64.3,382,65.8,381.2,67.4z"/>
				<path class="st9" d="M384.3,65.1c0.4-0.2,0.5-0.3,0.9-0.6c0.6-0.8,0.9-1.3,1.4-2.2l-0.3-0.2C386.4,62.2,385,64,384.3,65.1z"/>
				<path class="st8" d="M358.9,87.5l0.7-0.3c1,0,1.5,0.1,2.5,0.1l0.9,0.2C363,87.5,360.4,87.6,358.9,87.5z"/>
				<path class="st9" d="M357.2,74.6c1,0.2,2,0.3,3,0.1c1.5-0.2,2.9-0.6,2.9-0.6l-0.5-0.2C360.7,74.1,358.9,74.3,357.2,74.6z"/>
				<path class="st9" d="M365,74.2l0.4,0.5c1.9-0.5,3.7-1,5.5-1.7l-0.2-0.1C368.8,73.4,366.9,73.8,365,74.2z"/>
			</g>
		</g>
	</g>
</g>
</svg>
